<svg width="1600" height="1200" viewBox="0 0 1600 1200" fill="none" xmlns="http://www.w3.org/2000/svg">
  <rect width="1600" height="1200" fill="#F5EEE2"/>
  <rect width="1600" height="1200" fill="url(#bg)"/>
  <g filter="url(#blur1)" opacity="0.72">
    <ellipse cx="1185" cy="246" rx="228" ry="180" fill="#FFF8EF"/>
  </g>
  <g filter="url(#blur2)" opacity="0.4">
    <ellipse cx="942" cy="725" rx="370" ry="120" fill="#D9CBB6"/>
  </g>
  <g opacity="0.98">
    <rect x="286" y="563" width="895" height="86" rx="20" fill="#FBF6EE"/>
    <rect x="303" y="615" width="860" height="168" rx="24" fill="#F0E5D6"/>
    <rect x="1088" y="515" width="164" height="110" rx="18" fill="#F5ECDF"/>
    <rect x="433" y="771" width="18" height="148" rx="9" fill="#8E977D"/>
    <rect x="1020" y="771" width="18" height="148" rx="9" fill="#8E977D"/>
    <rect x="501" y="503" width="182" height="44" rx="22" fill="#DFD2C2"/>
    <rect x="696" y="503" width="196" height="44" rx="22" fill="#DFD2C2"/>
  </g>
  <g opacity="0.2">
    <path d="M0 950H1600" stroke="#D9CCB8"/>
    <path d="M0 968H1600" stroke="#D9CCB8"/>
    <path d="M0 986H1600" stroke="#D9CCB8"/>
  </g>
  <g opacity="0.16">
    <rect width="1600" height="1200" fill="url(#grain)"/>
  </g>
  <defs>
    <filter id="blur1" x="837" y="-54" width="696" height="600" filterUnits="userSpaceOnUse" color-interpolation-filters="sRGB">
      <feGaussianBlur stdDeviation="60"/>
    </filter>
    <filter id="blur2" x="452" y="525" width="980" height="400" filterUnits="userSpaceOnUse" color-interpolation-filters="sRGB">
      <feGaussianBlur stdDeviation="60"/>
    </filter>
    <linearGradient id="bg" x1="800" y1="0" x2="800" y2="1200" gradientUnits="userSpaceOnUse">
      <stop stop-color="#FBF7F0"/>
      <stop offset="1" stop-color="#E9DFCF"/>
    </linearGradient>
    <pattern id="grain" width="74" height="74" patternUnits="userSpaceOnUse">
      <circle cx="12" cy="11" r="1" fill="#8A7A66"/>
      <circle cx="38" cy="29" r="1" fill="#8A7A66"/>
      <circle cx="57" cy="16" r="1" fill="#8A7A66"/>
      <circle cx="50" cy="54" r="1" fill="#8A7A66"/>
      <circle cx="18" cy="58" r="1" fill="#8A7A66"/>
    </pattern>
  </defs>
</svg>
