<svg width="1200" height="1400" viewBox="0 0 1200 1400" fill="none" xmlns="http://www.w3.org/2000/svg">
  <rect width="1200" height="1400" fill="#D7DECA"/>
  <rect width="1200" height="1400" fill="url(#base)"/>
  <g filter="url(#blur1)" opacity="0.82">
    <ellipse cx="472" cy="366" rx="170" ry="198" fill="#FFF8EE"/>
  </g>
  <g filter="url(#blur2)" opacity="0.68">
    <ellipse cx="713" cy="753" rx="297" ry="344" fill="#BAC3A4"/>
  </g>
  <g opacity="0.22">
    <path d="M104 157C160 241 195 332 210 430" stroke="#2B3A22" stroke-width="30" stroke-linecap="round"/>
    <path d="M206 100C262 188 292 278 307 377" stroke="#2B3A22" stroke-width="18" stroke-linecap="round"/>
    <path d="M1085 278C1031 355 994 453 970 570" stroke="#324329" stroke-width="26" stroke-linecap="round"/>
  </g>
  <g opacity="0.18">
    <rect width="1200" height="1400" fill="url(#grain)"/>
  </g>
  <defs>
    <filter id="blur1" x="182" y="48" width="580" height="636" filterUnits="userSpaceOnUse" color-interpolation-filters="sRGB">
      <feGaussianBlur stdDeviation="60"/>
    </filter>
    <filter id="blur2" x="296" y="289" width="834" height="928" filterUnits="userSpaceOnUse" color-interpolation-filters="sRGB">
      <feGaussianBlur stdDeviation="60"/>
    </filter>
    <linearGradient id="base" x1="600" y1="0" x2="600" y2="1400" gradientUnits="userSpaceOnUse">
      <stop stop-color="#DEE5D0"/>
      <stop offset="1" stop-color="#A0AA8D"/>
    </linearGradient>
    <pattern id="grain" width="72" height="72" patternUnits="userSpaceOnUse">
      <circle cx="9" cy="10" r="1" fill="#FFFDF7"/>
      <circle cx="37" cy="26" r="1" fill="#FFFDF7"/>
      <circle cx="60" cy="12" r="1" fill="#FFFDF7"/>
      <circle cx="53" cy="58" r="1" fill="#FFFDF7"/>
      <circle cx="16" cy="52" r="1" fill="#FFFDF7"/>
    </pattern>
  </defs>
</svg>
