<svg width="1600" height="1200" viewBox="0 0 1600 1200" fill="none" xmlns="http://www.w3.org/2000/svg">
  <rect width="1600" height="1200" fill="#F6EFE3"/>
  <rect width="1600" height="1200" fill="url(#bg)"/>
  <g filter="url(#blur1)" opacity="0.58">
    <ellipse cx="1130" cy="286" rx="220" ry="180" fill="#FFF8EE"/>
  </g>
  <g opacity="0.95">
    <rect x="278" y="578" width="820" height="170" rx="22" fill="#EFE4D3"/>
    <rect x="262" y="548" width="856" height="94" rx="18" fill="#F8F2E8"/>
    <rect x="1052" y="506" width="190" height="110" rx="22" fill="#F4EBDD"/>
    <rect x="372" y="730" width="22" height="166" rx="11" fill="#9CA48D"/>
    <rect x="1006" y="730" width="22" height="166" rx="11" fill="#9CA48D"/>
    <rect x="490" y="491" width="188" height="54" rx="27" fill="#DDD3C3"/>
    <rect x="694" y="491" width="188" height="54" rx="27" fill="#DDD3C3"/>
  </g>
  <g opacity="0.22">
    <path d="M0 927H1600" stroke="#D8C9B3"/>
    <path d="M0 944H1600" stroke="#D8C9B3"/>
    <path d="M0 960H1600" stroke="#D8C9B3"/>
  </g>
  <g opacity="0.16">
    <rect width="1600" height="1200" fill="url(#grain)"/>
  </g>
  <defs>
    <filter id="blur1" x="790" y="-14" width="680" height="600" filterUnits="userSpaceOnUse" color-interpolation-filters="sRGB">
      <feGaussianBlur stdDeviation="60"/>
    </filter>
    <linearGradient id="bg" x1="800" y1="0" x2="800" y2="1200" gradientUnits="userSpaceOnUse">
      <stop stop-color="#FBF7EF"/>
      <stop offset="1" stop-color="#ECE1D0"/>
    </linearGradient>
    <pattern id="grain" width="74" height="74" patternUnits="userSpaceOnUse">
      <circle cx="10" cy="12" r="1" fill="#8D7D67"/>
      <circle cx="37" cy="28" r="1" fill="#8D7D67"/>
      <circle cx="56" cy="15" r="1" fill="#8D7D67"/>
      <circle cx="49" cy="58" r="1" fill="#8D7D67"/>
      <circle cx="17" cy="55" r="1" fill="#8D7D67"/>
    </pattern>
  </defs>
</svg>
