<svg width="1200" height="900" viewBox="0 0 1200 900" fill="none" xmlns="http://www.w3.org/2000/svg">
  <rect width="1200" height="900" fill="#F7F1E6"/>
  <rect width="1200" height="900" fill="url(#base)"/>
  <g opacity="0.16">
    <path d="M0 156H1200" stroke="#D7C9B3"/>
    <path d="M0 308H1200" stroke="#D7C9B3"/>
    <path d="M0 462H1200" stroke="#D7C9B3"/>
    <path d="M0 615H1200" stroke="#D7C9B3"/>
    <path d="M0 768H1200" stroke="#D7C9B3"/>
  </g>
  <g opacity="0.08">
    <path d="M120 0V900" stroke="#7B6E5F"/>
    <path d="M286 0V900" stroke="#7B6E5F"/>
    <path d="M452 0V900" stroke="#7B6E5F"/>
    <path d="M618 0V900" stroke="#7B6E5F"/>
    <path d="M784 0V900" stroke="#7B6E5F"/>
    <path d="M950 0V900" stroke="#7B6E5F"/>
    <path d="M1116 0V900" stroke="#7B6E5F"/>
  </g>
  <g opacity="0.16">
    <rect width="1200" height="900" fill="url(#grain)"/>
  </g>
  <defs>
    <linearGradient id="base" x1="600" y1="0" x2="600" y2="900" gradientUnits="userSpaceOnUse">
      <stop stop-color="#FBF7EF"/>
      <stop offset="1" stop-color="#F2EADD"/>
    </linearGradient>
    <pattern id="grain" width="68" height="68" patternUnits="userSpaceOnUse">
      <circle cx="10" cy="9" r="1" fill="#8C7C67"/>
      <circle cx="35" cy="27" r="1" fill="#8C7C67"/>
      <circle cx="57" cy="14" r="1" fill="#8C7C67"/>
      <circle cx="49" cy="57" r="1" fill="#8C7C67"/>
      <circle cx="18" cy="50" r="1" fill="#8C7C67"/>
    </pattern>
  </defs>
</svg>
