<svg width="1200" height="1600" viewBox="0 0 1200 1600" fill="none" xmlns="http://www.w3.org/2000/svg">
  <rect width="1200" height="1600" fill="#EAE0D0"/>
  <rect width="1200" height="1600" fill="url(#bg)"/>
  <g filter="url(#blur1)" opacity="0.92">
    <ellipse cx="634" cy="602" rx="310" ry="182" fill="#FFF8F0"/>
  </g>
  <g opacity="0.55">
    <path d="M258 843C374 733 502 680 647 678C798 676 922 738 1031 845" stroke="#534B43" stroke-width="24" stroke-linecap="round"/>
    <path d="M318 852C421 773 522 737 647 737C770 737 871 775 974 852" stroke="#211E1C" stroke-width="10" stroke-linecap="round"/>
  </g>
  <g opacity="0.7">
    <path d="M383 820L349 744" stroke="#2A2522" stroke-width="5" stroke-linecap="round"/>
    <path d="M457 789L441 711" stroke="#2A2522" stroke-width="5" stroke-linecap="round"/>
    <path d="M540 771L540 692" stroke="#2A2522" stroke-width="5" stroke-linecap="round"/>
    <path d="M630 763L641 687" stroke="#2A2522" stroke-width="5" stroke-linecap="round"/>
    <path d="M722 769L751 699" stroke="#2A2522" stroke-width="5" stroke-linecap="round"/>
    <path d="M813 794L860 733" stroke="#2A2522" stroke-width="5" stroke-linecap="round"/>
    <path d="M888 826L947 781" stroke="#2A2522" stroke-width="5" stroke-linecap="round"/>
  </g>
  <g opacity="0.18">
    <rect width="1200" height="1600" fill="url(#grain)"/>
  </g>
  <defs>
    <filter id="blur1" x="204" y="300" width="860" height="604" filterUnits="userSpaceOnUse" color-interpolation-filters="sRGB">
      <feGaussianBlur stdDeviation="60"/>
    </filter>
    <linearGradient id="bg" x1="600" y1="0" x2="600" y2="1600" gradientUnits="userSpaceOnUse">
      <stop stop-color="#F7EFE4"/>
      <stop offset="1" stop-color="#DED0BC"/>
    </linearGradient>
    <pattern id="grain" width="74" height="74" patternUnits="userSpaceOnUse">
      <circle cx="12" cy="11" r="1" fill="#8A7A66"/>
      <circle cx="38" cy="29" r="1" fill="#8A7A66"/>
      <circle cx="57" cy="16" r="1" fill="#8A7A66"/>
      <circle cx="50" cy="54" r="1" fill="#8A7A66"/>
      <circle cx="18" cy="58" r="1" fill="#8A7A66"/>
    </pattern>
  </defs>
</svg>
