<svg width="1200" height="1600" viewBox="0 0 1200 1600" fill="none" xmlns="http://www.w3.org/2000/svg">
  <rect width="1200" height="1600" fill="#D6DDC8"/>
  <rect width="1200" height="1600" fill="url(#bg)"/>
  <g filter="url(#blur1)" opacity="0.72">
    <ellipse cx="649" cy="455" rx="280" ry="210" fill="#F8F4EC"/>
  </g>
  <g opacity="0.9">
    <path d="M230 690C332 611 431 566 551 560C626 556 681 572 740 598" stroke="#33422B" stroke-width="21" stroke-linecap="round"/>
    <path d="M968 690C866 611 767 566 647 560C572 556 517 572 458 598" stroke="#33422B" stroke-width="21" stroke-linecap="round"/>
    <path d="M280 716C370 648 461 615 560 612" stroke="#7B836F" stroke-width="8" stroke-linecap="round"/>
    <path d="M920 716C830 648 739 615 640 612" stroke="#7B836F" stroke-width="8" stroke-linecap="round"/>
  </g>
  <g opacity="0.18">
    <rect width="1200" height="1600" fill="url(#grain)"/>
  </g>
  <defs>
    <filter id="blur1" x="249" y="125" width="800" height="660" filterUnits="userSpaceOnUse" color-interpolation-filters="sRGB">
      <feGaussianBlur stdDeviation="60"/>
    </filter>
    <linearGradient id="bg" x1="600" y1="0" x2="600" y2="1600" gradientUnits="userSpaceOnUse">
      <stop stop-color="#DEE5D0"/>
      <stop offset="1" stop-color="#B0B99E"/>
    </linearGradient>
    <pattern id="grain" width="70" height="70" patternUnits="userSpaceOnUse">
      <circle cx="10" cy="11" r="1" fill="#FCF9F1"/>
      <circle cx="33" cy="27" r="1" fill="#FCF9F1"/>
      <circle cx="59" cy="16" r="1" fill="#FCF9F1"/>
      <circle cx="50" cy="53" r="1" fill="#FCF9F1"/>
      <circle cx="19" cy="59" r="1" fill="#FCF9F1"/>
    </pattern>
  </defs>
</svg>
