<svg width="1200" height="1600" viewBox="0 0 1200 1600" fill="none" xmlns="http://www.w3.org/2000/svg">
  <rect width="1200" height="1600" fill="#EFE6D8"/>
  <rect width="1200" height="1600" fill="url(#bg)"/>
  <g filter="url(#blur1)" opacity="0.62">
    <ellipse cx="821" cy="359" rx="230" ry="182" fill="#FFF8EE"/>
  </g>
  <g opacity="0.95">
    <rect x="318" y="1008" width="566" height="36" rx="18" fill="#D8C9B3"/>
    <rect x="412" y="544" width="134" height="430" rx="44" fill="#CBD3BB"/>
    <rect x="446" y="468" width="66" height="116" rx="22" fill="#B5BEA4"/>
    <rect x="612" y="640" width="186" height="334" rx="58" fill="#FAF3E9"/>
    <rect x="659" y="572" width="92" height="96" rx="24" fill="#E7DDD0"/>
    <rect x="836" y="790" width="92" height="184" rx="36" fill="#8F977D"/>
    <rect x="858" y="744" width="48" height="62" rx="16" fill="#7C846B"/>
  </g>
  <g opacity="0.16">
    <rect width="1200" height="1600" fill="url(#grain)"/>
  </g>
  <defs>
    <filter id="blur1" x="471" y="57" width="700" height="604" filterUnits="userSpaceOnUse" color-interpolation-filters="sRGB">
      <feGaussianBlur stdDeviation="60"/>
    </filter>
    <linearGradient id="bg" x1="600" y1="0" x2="600" y2="1600" gradientUnits="userSpaceOnUse">
      <stop stop-color="#F6EFE4"/>
      <stop offset="1" stop-color="#E8DDCA"/>
    </linearGradient>
    <pattern id="grain" width="72" height="72" patternUnits="userSpaceOnUse">
      <circle cx="12" cy="10" r="1" fill="#8B7B66"/>
      <circle cx="35" cy="27" r="1" fill="#8B7B66"/>
      <circle cx="57" cy="16" r="1" fill="#8B7B66"/>
      <circle cx="51" cy="55" r="1" fill="#8B7B66"/>
      <circle cx="17" cy="57" r="1" fill="#8B7B66"/>
    </pattern>
  </defs>
</svg>
