<svg width="1200" height="1400" viewBox="0 0 1200 1400" fill="none" xmlns="http://www.w3.org/2000/svg">
  <rect width="1200" height="1400" fill="#EFE4D2"/>
  <rect width="1200" height="1400" fill="url(#base)"/>
  <g opacity="0.58" filter="url(#blur)">
    <path d="M271 284C379 242 468 288 543 339C611 385 677 437 771 426C841 418 910 376 984 399C1058 422 1091 494 1044 550C979 627 833 616 763 692C694 767 751 865 702 964C650 1071 482 1119 347 1057C211 995 129 826 164 680C192 561 304 481 340 387C352 356 341 311 271 284Z" fill="#DCCDB7"/>
  </g>
  <g opacity="0.8">
    <path d="M246 291C353 247 457 288 536 340C624 398 691 462 806 430C869 412 946 374 1008 415" stroke="#D8C9B0" stroke-width="22" stroke-linecap="round"/>
    <path d="M197 557C293 508 391 530 471 588C560 654 661 733 777 697C859 671 925 599 1012 614" stroke="#E4D7C3" stroke-width="24" stroke-linecap="round"/>
    <path d="M195 855C293 790 423 812 513 867C616 930 708 1012 829 969C891 947 942 902 1004 899" stroke="#D8C9B0" stroke-width="22" stroke-linecap="round"/>
  </g>
  <g opacity="0.18">
    <rect width="1200" height="1400" fill="url(#grain)"/>
  </g>
  <defs>
    <filter id="blur" x="52" y="171" width="1125" height="989" filterUnits="userSpaceOnUse" color-interpolation-filters="sRGB">
      <feGaussianBlur stdDeviation="36"/>
    </filter>
    <linearGradient id="base" x1="600" y1="0" x2="600" y2="1400" gradientUnits="userSpaceOnUse">
      <stop stop-color="#F4EBDE"/>
      <stop offset="1" stop-color="#E9DDC8"/>
    </linearGradient>
    <pattern id="grain" width="70" height="70" patternUnits="userSpaceOnUse">
      <circle cx="10" cy="18" r="1" fill="#917F68"/>
      <circle cx="35" cy="40" r="1" fill="#917F68"/>
      <circle cx="58" cy="12" r="1" fill="#917F68"/>
      <circle cx="51" cy="61" r="1" fill="#917F68"/>
      <circle cx="18" cy="56" r="1" fill="#917F68"/>
    </pattern>
  </defs>
</svg>
